<svg xmlns="http://www.w3.org/2000/svg" id="Calque_1" version="1.1" viewBox="231.02 492.94 955.28 431.44">
  <!-- Generator: Adobe Illustrator 29.2.1, SVG Export Plug-In . SVG Version: 2.1.0 Build 116)  -->
  <defs>
    <style>
      .st0 {
        fill: #1e1e1c;
      }
    </style>
  </defs>
  <g>
    <path class="st0" d="M381.42,846.35v-14.98h47.49l-.28,34.49c0,23.18-18.66,41.84-41.56,41.84h-114.49c-22.9,0-41.56-18.66-41.56-41.56v-114.77c0-22.9,18.66-41.56,41.56-41.56h114.49c22.9,0,41.56,18.66,41.56,41.56l.28,34.49h-47.49v-14.98c0-7.63-6.22-13.57-13.85-13.57h-75.48c-7.63,0-13.57,5.94-13.57,13.57v75.76c0,7.63,5.94,13.85,13.57,13.85l75.48-.28c7.63,0,13.85-6.22,13.85-13.85Z"/>
    <path class="st0" d="M593,850.88l40.14,40.14-33.36,33.36-102.34-102.62v85.94h-47.21v-197.89h135.13c22.9,0,41.56,18.38,41.56,41.27v59.08c0,20.35-14.7,37.32-33.92,40.71ZM497.45,804.51h68.69c7.35,0,13.57-6.22,13.57-13.85v-20.07c0-7.63-6.22-13.85-13.57-13.85h-68.69v47.78Z"/>
    <path class="st0" d="M808.77,709.81c22.9,0,41.56,18.66,41.56,41.56v156.33h-47.49v-60.78h-103.18v60.78h-47.49v-156.33c0-22.9,18.66-41.56,41.84-41.56h114.77ZM699.65,799.42h103.18v-28.27c0-7.63-5.94-13.85-13.85-13.85h-75.48c-7.63,0-13.85,6.22-13.85,13.85v28.27Z"/>
    <path class="st0" d="M913.5,709.81h272.8v47.49h-74.91v150.39h-47.49v-150.39h-130.89c-7.63,0-13.85,6.22-13.85,13.85v14.13h85.09v47.49h-85.09v74.91h-47.49v-156.05c0-23.18,18.66-41.84,41.84-41.84Z"/>
  </g>
  <g>
    <path class="st0" d="M734.7,492.95c22.71,0,41.04,18.33,41.04,41.31v108.89c0,22.71-18.33,41.31-41.04,41.31h-113.27c-22.98,0-41.31-18.6-41.31-41.31v-108.89c0-22.98,18.33-41.31,41.31-41.31h113.27ZM728.96,623.72v-70.31c0-7.39-6.29-13.68-13.68-13.68h-74.42c-7.66,0-13.68,6.29-13.68,13.68v70.31c0,7.66,6.02,13.68,13.68,13.68h74.42c7.39,0,13.68-6.02,13.68-13.68Z"/>
    <path class="st0" d="M939.94,629.47l38.85,38.85-32.28,32.28-99.04-99.31v83.17h-45.69v-191.51h130.78c22.16,0,40.22,17.78,40.22,39.95v57.18c0,19.7-14.23,36.11-32.83,39.4ZM847.47,584.6h66.48c7.11,0,13.13-6.02,13.13-13.41v-19.43c0-7.39-6.02-13.41-13.13-13.41h-66.48v46.24Z"/>
    <path class="st0" d="M1053.33,638.5h132.97v45.96h-152.12c-22.16,0-40.22-18.06-40.22-40.22v-111.08c0-22.16,18.06-40.22,40.22-40.22h152.12v45.96h-132.97c-7.39,0-13.41,6.02-13.41,13.41s6.02,13.41,13.41,13.41h132.97v45.96h-132.97c-7.39,0-13.41,6.02-13.41,13.41s6.02,13.41,13.41,13.41Z"/>
    <path class="st0" d="M559.98,534.26c0-15.47,5.6-30.02,15.84-41.31h-304.57c-22.16,0-40.22,18.06-40.22,40.22v36.93c0,22.16,18.06,40.22,40.22,40.22l90.56-.27c7.39,0,13.41,6.02,13.41,13.41v1.92c0,7.39-6.02,13.41-13.41,13.41h-130.5v45.69h149.65c22.16,0,40.22-18.06,40.22-40.22v-36.93c0-22.16-18.06-40.22-40.22-40.22l-90.83.27c-7.39,0-13.41-6.02-13.41-13.41v-1.91c0-7.39,6.02-13.41,13.41-13.41l175.92.27v145.55h45.96v-145.55h47.98v-4.65Z"/>
  </g>
</svg>