<svg xmlns="http://www.w3.org/2000/svg" id="Calque_1" version="1.1" viewBox="472.91 472.27 471.5 472.8">
  <!-- Generator: Adobe Illustrator 29.2.1, SVG Export Plug-In . SVG Version: 2.1.0 Build 116)  -->
  <defs>
    <style>
      .st0 {
        fill: #1e1e1c;
      }
    </style>
  </defs>
  <path class="st0" d="M576.3,682.47v-51.31c0-30.79,25.08-55.87,55.87-55.87h208.27v63.47h-182.05c-10.26,0-18.62,8.36-18.62,18.62v2.66c0,10.26,8.36,18.62,18.62,18.62l126.18-.38c30.79,0,55.87,25.09,55.87,55.87v51.31c0,30.78-25.08,55.87-55.87,55.87h-207.89v-63.47h181.29c10.26,0,18.62-8.36,18.62-18.62v-2.66c0-10.26-8.36-18.62-18.62-18.62l-125.8.38c-30.79,0-55.87-25.08-55.87-55.87Z"/>
  <path class="st0" d="M880.56,862.59v-85.14h63.85l-.38,111.37c0,31.17-25.08,56.25-55.87,56.25h-359.38c-30.79,0-55.87-25.08-55.87-55.87v-361.06c0-30.79,25.08-55.87,55.87-55.87h359.38c30.79,0,55.87,25.08,55.87,55.87l.38,110.37h-63.85v-84.14c0-10.26-8.36-18.24-18.62-18.24h-306.93c-10.26,0-18.24,7.98-18.24,18.24v308.61c0,10.26,7.98,18.62,18.24,18.62l306.93-.38c10.26,0,18.62-8.36,18.62-18.62Z"/>
</svg>