<svg version="1.1" id="Layer_1" xmlns:x="ns_extend;" xmlns:i="ns_ai;" xmlns:graph="ns_graphs;" xmlns="http://www.w3.org/2000/svg" xmlns:xlink="http://www.w3.org/1999/xlink" x="0px" y="0px" viewBox="0 0 323.9 66" style="enable-background:new 0 0 323.9 66;" xml:space="preserve">
 <style type="text/css">
  .st0{fill:#FFFFFF;}
 </style>
 <metadata>
  <sfw xmlns="ns_sfw;">
   <slices>
   </slices>
   <sliceSourceBounds bottomLeftOrigin="true" height="66" width="323.9" x="-162" y="0">
   </sliceSourceBounds>
  </sfw>
 </metadata>
 <g>
  <path class="st0" d="M230.6,32.8V12.3c0-0.4,0.1-0.5,0.5-0.5h10.1c0.4,0,0.5,0.1,0.5,0.5v19.5c0,0.1,0.1,0.2,0.1,0.3l0.3-0.1
		c0.3-0.3,0.5-0.6,0.8-1c1.4-1.7,2.8-3.4,4.1-5.1c0.2-0.3,0.4-0.4,0.8-0.4h11.1c0.1,0,0.2,0,0.2,0.1c0,0,0,0.2-0.1,0.2
		c-0.7,0.9-1.4,1.7-2.1,2.5c-2.1,2.5-4.1,5.1-6.2,7.6c-0.5,0.6-1,1.2-1.5,1.8c-0.2,0.2-0.2,0.4,0,0.6c1.5,1.8,3,3.5,4.5,5.3
		c1.8,2.2,3.7,4.4,5.5,6.6c0.9,1,1.8,2.1,2.6,3.1c0,0.1,0.1,0.2,0.1,0.3c-0.1,0-0.2,0.1-0.3,0.1h-12.1c-0.2,0-0.4-0.1-0.5-0.3
		c-1.9-2.2-3.7-4.4-5.5-6.7c-0.4-0.5-0.8-0.9-1.2-1.4c-0.1-0.1-0.2-0.1-0.3-0.2c0,0.1-0.1,0.2-0.1,0.4v7.8c0,0.4,0,0.4-0.5,0.4
		h-10.1c-0.6,0-0.6,0-0.6-0.6C230.6,46.3,230.6,39.5,230.6,32.8L230.6,32.8z M181.2,54.2c-1.4,0-2.8-0.2-4.1-0.6
		c-1.4-0.4-2.7-1-3.9-1.8c-1.4-1-2.7-2.1-3.8-3.4c-0.9-1.1-1.6-2.3-2.2-3.5c-1-2.5-1.4-5.1-1.1-7.7c0.1-1.3,0.4-2.6,0.9-3.9
		c0.8-2.1,2-4,3.6-5.6c1.3-1.3,2.8-2.4,4.5-3.1c0.8-0.4,1.7-0.6,2.6-0.9c1.8-0.4,3.5-0.5,5.3-0.4c1.1,0.1,2.2,0.3,3.3,0.6
		c1.1,0.3,2.2,0.8,3.2,1.4c1.4,0.8,2.6,1.9,3.7,3.1c1,1.1,1.8,2.2,2.4,3.5c0.5,1,0.9,2.1,1.1,3.3c0.4,2,0.4,4.1,0.2,6.2
		c-0.2,1.3-0.6,2.6-1.1,3.8c-1.4,3-3.7,5.2-6.4,7c-1.2,0.8-2.6,1.3-4,1.7C183.8,54,182.6,54.2,181.2,54.2z M181.6,34.1
		c-0.9,0-1.8,0.2-2.5,0.6c-1.2,0.7-1.8,1.8-2.1,3.1c-0.2,0.9-0.1,1.9,0.2,2.9c0.4,1.2,1.2,1.9,2.4,2.2c1,0.3,2.1,0.3,3.2,0
		c1.4-0.3,2.3-1.1,2.7-2.4c0.4-1.4,0.4-2.8-0.2-4.2c-0.3-0.8-1-1.5-1.9-1.7C182.9,34.4,182.2,34.3,181.6,34.1L181.6,34.1z
		 M65.4,39.1c0,1-0.2,2.4-0.6,3.8c-0.5,1.8-1.4,3.5-2.6,5c-1.1,1.4-2.3,2.6-3.7,3.6c-1,0.7-2,1.2-3.1,1.7c-2.2,0.9-4.5,1.1-6.8,0.9
		c-1.3-0.1-2.7-0.4-3.9-0.9c-3-1.2-5.3-3.1-7.3-5.6c-0.8-1-1.4-2.2-1.9-3.4c-0.4-1.1-0.7-2.2-0.9-3.4c-0.1-1.1-0.2-2.3-0.1-3.4
		c0.1-1.6,0.5-3.1,1.1-4.6c1-2.5,2.7-4.5,4.6-6.2c1.1-0.9,2.3-1.7,3.6-2.2c2.5-1.1,5.1-1.4,7.8-1.1c1.2,0.1,2.4,0.4,3.6,0.8
		c1.8,0.7,3.5,1.7,5,3c1.4,1.2,2.6,2.7,3.5,4.3c0.5,0.9,0.8,1.7,1.1,2.6C65.2,35.4,65.4,37,65.4,39.1z M45.4,38.7
		c0,0.2,0,0.5,0.1,0.9c0.2,1.6,1.1,2.7,2.7,3.1c1.4,0.4,2.8,0.4,4.2-0.1c1-0.4,1.7-1.2,2-2.2c0.3-1.1,0.3-2.2,0.1-3.3
		c-0.4-1.7-1.5-2.6-3-2.8c-1.2-0.2-2.3-0.2-3.5,0.2C47,34.8,46.4,35.3,46,36C45.5,36.8,45.4,37.7,45.4,38.7z M83.1,54.2
		c-1.4,0-2.8-0.2-4.2-0.6c-1.4-0.4-2.7-1-4-1.8c-2-1.3-3.7-3-5-4.9c-0.7-1.1-1.3-2.2-1.7-3.5c-0.6-2-0.8-4-0.7-6
		c0.1-1.4,0.4-2.7,0.9-4c0.8-2.2,2.1-4,3.7-5.7c1.3-1.3,2.8-2.4,4.5-3.1c1.3-0.5,2.6-0.9,3.9-1.1c1.2-0.2,2.5-0.3,3.7-0.1
		c0.8,0,1.6,0.2,2.4,0.4c0.6,0.1,1.3,0.3,1.9,0.5c0.8,0.3,1.6,0.7,2.3,1.1c1.7,0.9,3,2.2,4.2,3.7c1,1.2,1.8,2.5,2.3,4
		c0.9,2.3,1.2,4.7,1,7.1c-0.2,1.7-0.5,3.3-1.3,4.8c-1,2.1-2.4,3.9-4.2,5.4c-1.3,1.2-2.8,2.1-4.4,2.8C86.9,53.9,85,54.2,83.1,54.2
		L83.1,54.2z M83.5,43c0.2,0,0.4,0,0.6,0c0.8-0.1,1.6-0.3,2.2-0.8c0.8-0.6,1.2-1.4,1.4-2.3c0.2-1.2,0.2-2.3-0.2-3.4
		c-0.5-1.3-1.4-1.9-2.7-2.2c-1.2-0.2-2.4-0.2-3.7,0.2c-1.2,0.4-2,1.3-2.3,2.5c-0.3,1-0.3,2.1,0,3.1c0.2,0.8,0.5,1.4,1.2,1.9
		C81,42.9,82.2,43,83.5,43L83.5,43z">
  </path>
  <path class="st0" d="M274.3,54.1c-1.4,0-2.8-0.2-4.1-0.5c-1.4-0.4-2.8-1-4-1.8c-2-1.3-3.7-3-5.1-5c-0.7-1-1.3-2.2-1.6-3.4
		c-0.9-2.7-0.9-5.3-0.4-8c0.4-1.7,1-3.2,1.9-4.7c1-1.6,2.2-3.1,3.7-4.3c1.1-0.9,2.4-1.7,3.7-2.2c2.3-0.9,4.7-1.1,7.1-1
		c1.3,0.1,2.6,0.3,3.8,0.6c1.8,0.5,3.4,1.4,4.9,2.6c1.5,1.2,2.8,2.8,3.7,4.5c0.5,0.9,1,1.9,1.4,2.9c0.4,1,0.6,2.2,0.6,3.3
		c0,0.4-0.1,0.5-0.5,0.5c-1,0.2-2.1,0.5-3.2,0.7c-0.9,0.2-1.9,0.4-2.8,0.6c-0.9,0.2-1.9,0.4-2.8,0.6c-0.9,0.2-1.9,0.4-2.8,0.6
		c-1,0.2-2,0.5-3,0.7c-0.9,0.2-1.8,0.4-2.7,0.6l-1.4,0.3c-0.1,0-0.2,0.1-0.2,0.1c0,0.1,0.1,0.2,0.2,0.3c0.5,0.4,0.9,0.7,1.4,1.1
		c0.9,0.7,1.8,0.7,2.8,0.6c1.4-0.1,2.4-0.8,3.2-1.9c0.4-0.5,0.4-0.5,1-0.1l3.4,2.2c1.5,0.9,3,1.9,4.5,2.9c0.5,0.3,0.5,0.3,0.1,0.8
		c-1,1-1.9,2.1-2.9,3.1c-0.6,0.6-1.2,1.1-1.9,1.5c-0.8,0.5-1.7,0.9-2.7,1.3c-1.4,0.5-2.9,0.8-4.5,0.8
		C274.9,54.2,274.6,54.1,274.3,54.1L274.3,54.1z M274.6,33.4c-0.5,0.1-1,0.1-1.5,0.3c-1,0.3-1.9,1-2.5,1.8c-0.3,0.4-0.5,0.9-0.8,1.3
		c0,0.1,0,0.2,0,0.3c0,0,0.1,0,0.2,0c1-0.2,2-0.4,3.1-0.7l3-0.7c0.6-0.1,1.2-0.3,1.9-0.4c0.3-0.1,0.3-0.2,0.1-0.4
		C277,34.1,275.9,33.4,274.6,33.4L274.6,33.4z M14.9,34.9c0-6,0-11.9,0-17.9c0-1.8,0.9-3.1,2.3-4.1c1.1-0.8,2.3-1,3.6-1h15.1
		c0.9,0,0.8,0,0.8,0.8v8.4c0,0.5,0,0.6-0.6,0.6h-7.4c-0.5,0-1,0-1.4,0.2c-0.9,0.3-1.2,1.1-1.3,2c0,1.3,0,2.7,0,4v0.8
		c0,0.3,0.1,0.4,0.4,0.4h4.9c0.6,0,0.6,0,0.6,0.6v8.6c0,0.5,0,0.6-0.6,0.6h-4.9c-0.4,0-0.4,0-0.4,0.4v14.1c0,0.3-0.1,0.4-0.4,0.4
		H15.1c-0.3,0-0.3-0.1-0.3-0.4C14.9,47.2,14.9,41.1,14.9,34.9L14.9,34.9z M105,41.8v-7.1c0-0.4-0.1-0.5-0.5-0.5h-3.6
		c-0.4,0-0.4,0-0.4-0.4v-9c0-0.3,0.1-0.4,0.4-0.4h3.6c0.4,0,0.5-0.1,0.5-0.5v-9c0-0.4,0-0.4,0.4-0.4h10c0.4,0,0.5,0,0.5,0.5
		c0,1.7,0,3.4,0,5c0,1.3,0,2.6,0,3.9c0,0.5,0.1,0.5,0.6,0.5h3.2c0.4,0,0.4,0.1,0.4,0.4v8.9c0,0.4-0.1,0.5-0.4,0.5h-3.2
		c-0.5,0-0.5,0.1-0.5,0.5v6.5c0,0.5,0,1.1,0.3,1.7c0.3,0.6,0.8,0.9,1.4,1c0.3,0,0.6,0,0.9,0h3.1c0.5,0,0.5,0,0.5,0.5v8.7
		c0,0.4,0,0.5-0.5,0.5h-11.2c-1.4,0-2.8-0.5-3.8-1.3c-1.2-0.9-1.9-2.4-1.8-3.9C105,46.2,105,44,105,41.8z M215.1,54.1
		c-1.5,0.1-2.9-0.2-4.3-0.5c-1.4-0.4-2.7-1-4-1.8c-1.9-1.2-3.5-2.8-4.8-4.6c-0.9-1.2-1.5-2.5-1.9-3.9c-0.6-2-0.8-4.1-0.6-6.2
		c0.2-2.1,0.8-4.1,1.9-6c1.2-2,2.8-3.8,4.7-5.2c1.1-0.8,2.4-1.5,3.7-1.9c2.4-0.8,5-1,7.6-0.6c0.9,0.1,1.9,0.4,2.8,0.6
		c1.3,0.4,2.5,1,3.6,1.8c1.6,1.2,3,2.6,4.1,4.2c0.1,0.2,0.1,0.3-0.1,0.5c-2,1.3-4,2.5-6,3.8c-0.9,0.5-1.7,1.1-2.6,1.7
		c-0.4,0.3-0.4,0.3-0.8-0.1c-0.4-0.4-0.7-0.8-1.2-1.1c-0.6-0.5-1.4-0.6-2.2-0.5c-0.7,0-1.4,0-2.1,0.3c-1,0.4-1.7,1-2.1,2
		c-0.5,1.2-0.5,2.5-0.2,3.7c0.3,1.2,1,2,2.2,2.4c1.3,0.5,2.5,0.5,3.8,0.2c0.8-0.2,1.4-0.7,1.9-1.3c0-0.1,0.1-0.1,0.2-0.2
		c0.1-0.1,0.2-0.1,0.4,0c2.3,1.5,4.6,3,6.9,4.4l1.9,1.2c0.2,0.1,0.2,0.3,0.1,0.4c-1.4,2-3,3.6-5.1,4.9c-1.5,0.9-3.2,1.5-5,1.8
		c-0.9,0.1-1.8,0.2-2.6,0.3C215.1,54.2,215.1,54.2,215.1,54.1L215.1,54.1z M142.9,30.6V12.3c0-0.5,0-0.5,0.5-0.5h9.9
		c0.5,0,0.5,0.1,0.5,0.5V41c0,0.4,0,0.8,0.1,1.2c0.1,0.9,0.9,1.6,1.7,1.7c0.4,0,0.7,0,1.1,0h7.4c0.4,0,0.4,0.1,0.4,0.5v8.9
		c0,0.3-0.1,0.4-0.4,0.4h-16.3c-1,0-2.1-0.2-3-0.8c-0.8-0.4-1.3-1.1-1.6-2c-0.4-0.9-0.4-1.9-0.4-2.9
		C142.9,42.2,142.9,36.4,142.9,30.6z M293,40.8V29.4c0-0.7,0-1.5,0.2-2.2c0.4-1.6,1.3-2.7,2.9-3.2c0.8-0.3,1.6-0.3,2.4-0.3h13.2
		c0.5,0,0.5,0.1,0.5,0.5v8.7c0,0.5,0,0.5-0.5,0.5c-1.7,0-3.3,0-5,0c-0.5,0-1.1,0.1-1.6,0.3c-0.8,0.3-1,0.9-1.1,1.7
		c0,0.3,0,0.5,0,0.8v17.1c0,0.3-0.1,0.4-0.4,0.4h-10.2c-0.4,0-0.5-0.1-0.5-0.4C292.9,49.1,292.9,45,293,40.8L293,40.8z">
  </path>
 </g>
</svg>