<svg xmlns="http://www.w3.org/2000/svg" width="96" height="14" viewBox="0 0 96 14" fill="none"><g clip-path="url(#clip0_16325_13620)"><mask id="mask0_16325_13620" style="mask-type:luminance" maskUnits="userSpaceOnUse" x="0" y="0" width="96" height="14"><path d="M0 0H96V14H0V0Z" fill="white"></path></mask><g mask="url(#mask0_16325_13620)"><path d="M54.615 14.071H51.612L49.852 10.526H42.988L41.249 14.071H38.292L45.178 0H47.707L54.615 14.071ZM48.971 8.521L46.397 3.083L43.823 8.522H48.971V8.521ZM2.619 2.203H12.531V0H0V14.071H2.619V7.839H8.512V5.593H2.619V2.202V2.203ZM29.599 14.072H32.534L32.218 13.522C31.18 11.76 30.186 10.086 29.396 8.325C31.383 7.84 32.556 6.365 32.556 4.317C32.557 1.894 30.458 0 27.794 0H18.989V14.071H21.563V8.5H26.575C27.433 10.261 28.404 11.979 29.352 13.653L29.6 14.071L29.599 14.072ZM27.364 6.387H21.584V2.114H27.409C28.854 2.114 29.757 2.951 29.757 4.272C29.78 5.615 28.899 6.387 27.364 6.387ZM62.991 14.072H60.35V0H62.766L67.959 8.015L73.129 0H75.703V14.071H73.083V4.712L68.32 11.957H67.62L62.99 4.778V14.071L62.991 14.072ZM96 11.913V14.071H83.086V0H95.57V2.202H85.75V5.593H91.62V7.84H85.75V11.914L96 11.913Z" fill="#FFFFFF"></path></g></g><defs><clipPath id="clip0_16325_13620"><rect width="96" height="14" fill="white"></rect></clipPath></defs></svg>