<svg xmlns="http://www.w3.org/2000/svg" xmlns:xlink="http://www.w3.org/1999/xlink" version="1.1" id="Layer_1" x="0px" y="0px" style="enable-background:new 0 0 233.7 48.4;" xml:space="preserve" viewBox="0 -0.02 233.8 48.44">
 <style type="text/css">
  .st0{fill:#FFFFFF;}
 </style>
 <g>
  <path class="st0" d="M21.1,0.9c0.2,0.3,0.3,0.6,0.1,1v44.4c0,0.8-0.6,1.4-1.4,1.4h-3.9c-0.8,0-1.4-0.6-1.4-1.4V28   c0-0.4-0.2-0.7-0.5-1c-0.3-0.3-0.6-0.4-1-0.4H8.4c-0.3,0-0.7,0.2-0.9,0.4C7.2,27.3,7,27.7,7,28v18.2c0,0.8-0.6,1.4-1.4,1.4H1.4   c-0.3,0-0.7-0.2-0.9-0.4C0.2,47,0,46.6,0,46.2V1.8c0-0.4,0.2-0.7,0.5-0.9C0.7,0.6,1,0.5,1.4,0.4h4.2c0.4,0,0.7,0.2,1,0.5   C6.8,1.2,7,1.5,7,1.8v16.7c0,0.4,0.2,0.7,0.5,0.9c0.2,0.3,0.6,0.4,0.9,0.5h4.7c0.4,0,0.8-0.2,1-0.5c0.3-0.2,0.4-0.6,0.4-0.9V1.8   c0-0.3,0.1-0.7,0.4-0.9c0.2-0.3,0.6-0.5,1-0.5h4.2C20.5,0.4,20.9,0.6,21.1,0.9z M49.3,44.9c1.8-2.4,2.8-5.4,2.8-8.5V12.1   C52.2,9,51.3,6,49.4,3.5c-2-2.4-5.1-3.7-8.2-3.5c-3.1-0.2-6.1,1.2-8.1,3.6c-1.8,2.5-2.7,5.5-2.6,8.6v24.1c-0.1,3.1,0.8,6.2,2.7,8.6   c2,2.4,5,3.7,8.1,3.5C44.4,48.5,47.4,47.2,49.3,44.9L49.3,44.9z M44.8,35.9c0.1,1.4-0.2,2.7-0.8,3.9c-0.7,0.9-1.8,1.3-2.9,1.2   c-1.1,0.1-2.2-0.3-2.9-1.2c-0.6-1.2-0.9-2.6-0.8-3.9V12.1c-0.1-1.4,0.2-2.7,0.8-3.9C38.9,7.3,40,6.9,41.1,7   c1.1-0.1,2.2,0.4,2.9,1.2c0.6,1.2,0.9,2.6,0.8,3.9V35.9z M62.4,47.2c-0.3-0.2-0.4-0.6-0.2-1V1.8c0-0.3,0.2-0.7,0.4-0.9   c0.2-0.3,0.6-0.5,1-0.5h4.2c0.4,0,0.7,0.2,1,0.5c0.2,0.2,0.4,0.6,0.4,0.9v37.4c0,0.4,0.2,0.7,0.5,1c0.2,0.2,0.6,0.4,0.9,0.4h8.2   c0.4,0,0.8,0.2,1,0.5c0.3,0.2,0.4,0.6,0.5,0.9v4.2c0,0.4-0.2,0.7-0.5,1c-0.3,0.3-0.6,0.4-1,0.4H63.3C63,47.6,62.6,47.5,62.4,47.2z    M104.2,47.2c-0.2,0.2-0.4,0.4-0.7,0.4H88.1c-0.4,0-0.7-0.2-1-0.4c-0.3-0.2-0.4-0.6-0.4-1V1.8c0-0.3,0.1-0.7,0.4-0.9   c0.2-0.3,0.6-0.5,1-0.5h4.2c0.7,0.1,1.3,0.7,1.4,1.4v37.4c0,0.4,0.2,0.7,0.4,1c0.3,0.3,0.6,0.4,1,0.4h8.2c0.4,0,0.7,0.2,1,0.5   c0.2,0.2,0.4,0.6,0.4,0.9v4.2C104.6,46.6,104.5,46.9,104.2,47.2z M119.4,47.2c-0.3,0.3-0.6,0.4-1,0.4h-4.1c-0.4,0-0.7-0.2-1-0.4   c-0.3-0.2-0.5-0.6-0.5-1V1.8c0-0.4,0.2-0.7,0.5-0.9c0.3-0.3,0.6-0.5,1-0.5h4.1c0.4,0,0.8,0.2,1,0.5c0.3,0.2,0.4,0.6,0.5,0.9v44.4   C119.9,46.6,119.7,47,119.4,47.2z M137.7,16.4c1.3,1.6,2.7,3,4.1,4.4c1.4,1.3,2.7,2.6,3.9,4c1.3,1.5,2.4,3.1,3.2,4.9   c0.9,1.9,1.3,4,1.3,6.2c0.2,3.3-0.8,6.5-3,9c-2.1,2.1-5,3.3-8,3.1c-2.7,0-5.2-1.1-7-3c-1.8-2.2-2.9-4.8-3.2-7.6   c-0.1-0.5-0.1-1,0-1.5c0.1-0.3,0.3-0.5,0.6-0.6l3.9-0.8c0.4-0.1,0.9,0,1.2,0.3c0.4,0.3,0.6,0.6,0.8,1.1l0.2,1.4   c0.2,0.9,0.6,1.7,1.1,2.5c0.7,0.9,1.8,1.3,2.9,1.3c1.1,0,2.1-0.3,2.9-1.1c0.8-0.8,1.2-2,1.1-3.1c0-1.9-0.7-3.8-1.8-5.3   c-1.3-1.6-2.7-3.1-4.2-4.6c-1.4-1.2-2.7-2.5-3.9-3.9c-1.3-1.5-2.3-3.1-3.1-4.9c-0.8-2-1.2-4.2-1.2-6.4c-0.2-3.1,0.8-6.2,2.8-8.6   c2.1-2.1,5-3.2,8-3c1.7,0,3.3,0.5,4.7,1.5c1.2,0.9,2.1,2,2.8,3.3c0.5,1.1,0.9,2.2,1.2,3.3l0.4,1.5c0.1,0.4,0.1,0.9-0.1,1.2   c-0.1,0.4-0.5,0.7-0.9,0.7l-3.7,0.5c-0.3,0-0.6-0.1-0.9-0.3c-0.2-0.2-0.3-0.4-0.4-0.6l-0.1-0.3c0-1.2-0.6-2.3-1.5-3.1   c-0.7-0.7-1.8-1-2.8-0.9c-2,0.2-3,1.8-3,4.9C136,13.5,136.6,15.1,137.7,16.4z M175.7,0.9c0.2,0.2,0.3,0.6,0.2,0.9v4.2   c0,0.8-0.6,1.4-1.4,1.4h-3.9c-0.4,0-0.7,0.2-1,0.5c-0.3,0.3-0.4,0.6-0.4,1v37.3c0,0.4-0.2,0.7-0.5,1c-0.3,0.3-0.6,0.4-1,0.4h-4.1   c-0.4,0-0.7-0.2-1-0.4c-0.3-0.2-0.5-0.6-0.5-1V8.9c0-0.4-0.2-0.7-0.4-1c-0.2-0.3-0.6-0.5-1-0.5h-3.9c-0.4,0-0.7-0.2-1-0.4   c-0.3-0.3-0.4-0.6-0.4-1V1.8c0-0.3,0.2-0.7,0.4-0.9c0.2-0.3,0.5-0.4,0.9-0.5h18C175.1,0.4,175.5,0.6,175.7,0.9z M202.8,42.3v4.2   c0,0.4-0.2,0.7-0.5,0.9c-0.3,0.3-0.6,0.4-1,0.5h-16.9c-0.4,0-0.7-0.2-0.9-0.5c-0.3-0.2-0.4-0.6-0.5-0.9V2.1c0-0.4,0.2-0.7,0.5-1   c0.2-0.2,0.6-0.4,0.9-0.4h15.9c0.8,0,1.4,0.6,1.4,1.4v4.2c0,0.3-0.2,0.7-0.4,0.9c-0.2,0.3-0.6,0.5-1,0.5h-8.8c-0.4,0-0.7,0.2-1,0.4   c-0.3,0.2-0.5,0.6-0.5,0.9v9.4c0,0.4,0.2,0.7,0.5,0.9c0.3,0.3,0.6,0.5,1,0.5h6.3c0.4,0,0.7,0.2,1,0.5c0.2,0.2,0.4,0.6,0.4,0.9v4.2   c0,0.8-0.6,1.4-1.4,1.4h-6.3c-0.4,0-0.8,0.2-1,0.5c-0.3,0.2-0.4,0.6-0.5,0.9v11c0,0.4,0.2,0.7,0.5,1c0.3,0.3,0.6,0.4,1,0.4h9.7   C202,40.6,202.5,41.2,202.8,42.3L202.8,42.3z M227.7,26.2c1.5-0.8,2.7-2,3.4-3.5c1.1-2.6,1.7-5.4,1.6-8.2c0.3-4.1-1.3-8.1-4.3-10.9   c-2.5-2.1-5.8-3.3-9.1-3.1h-7c-0.4,0-0.8,0.2-1,0.5c-0.3,0.2-0.4,0.6-0.5,0.9v44.4c0,0.4,0.2,0.7,0.5,1c0.3,0.3,0.6,0.4,1,0.4h4.2   c0.4,0,0.7-0.2,1-0.4c0.3-0.2,0.5-0.6,0.5-1V29.7c0-0.4,0.2-0.7,0.4-1c0.2-0.3,0.6-0.5,1-0.5h1.2c0.3,0,0.6,0.2,0.8,0.4   c0.3,0.2,0.5,0.5,0.6,0.8l4.7,16.8c0.1,0.4,0.3,0.7,0.6,1c0.3,0.2,0.7,0.4,1.1,0.4h4.4c0.6,0,1-0.5,1-1.1c0-0.1,0-0.2-0.1-0.3   L227.7,26.2z M224.7,18.7c-0.4,0.8-1.1,1.5-1.8,2c-0.4,0.2-0.8,0.4-1.2,0.5c-0.8,0.3-1.7,0.4-2.6,0.5c-0.3,0-0.6-0.2-0.8-0.4   c-0.2-0.3-0.3-0.6-0.3-1V8.6c0-0.8,0.6-1.4,1.4-1.4h1.2c1.5-0.2,3,0.4,4,1.6c0.9,1.7,1.3,3.7,1.2,5.7   C225.7,16,225.4,17.5,224.7,18.7L224.7,18.7z">
  </path>
 </g>
</svg>