<svg width="160px" height="26px" id="Layer_1" data-name="Layer 1" xmlns="http://www.w3.org/2000/svg" viewBox="0 0 1802.35 289.6"><defs><style>.cls-1{fill:#FFFFFF;}</style></defs><title>Saint and Sofia Black Extended</title><path class="cls-1" d="M244,902.2h-40.8V893q0-14-6.61-24.2t-22.19-10.2q-8.4,0-13.6,3.2a26.82,26.82,0,0,0-8.4,8,33.73,33.73,0,0,0-4.4,11.8,77,77,0,0,0-1.2,13.8,135.2,135.2,0,0,0,.6,14,26.52,26.52,0,0,0,3,10,22.12,22.12,0,0,0,7,7.6,63.38,63.38,0,0,0,12.6,6.4l31.2,12.4q13.59,5.21,22,12.2a52.82,52.82,0,0,1,13.2,16.2,76,76,0,0,1,6,21.8,217,217,0,0,1,1.6,27.8,146.55,146.55,0,0,1-3.6,33.4q-3.6,15.4-11.6,26.2a57.54,57.54,0,0,1-22,17.6q-13.61,6.39-33.21,6.4a72.72,72.72,0,0,1-27.59-5.2,65.35,65.35,0,0,1-22-14.4,69.84,69.84,0,0,1-14.6-21.4,65,65,0,0,1-5.4-26.6v-15.2h40.8v12.8a33.32,33.32,0,0,0,6.6,20.2q6.6,9,22.19,9,10.41,0,16.21-3a21.57,21.57,0,0,0,9-8.6,31.47,31.47,0,0,0,3.79-13.4q.62-7.8.61-17.4a173.39,173.39,0,0,0-.8-18.4,31.84,31.84,0,0,0-3.2-11.6,22.65,22.65,0,0,0-7.4-7.2,96.84,96.84,0,0,0-12.21-6l-29.19-12Q124,958.2,115,940.4t-9-44.6a103.28,103.28,0,0,1,4.4-30.4,69.24,69.24,0,0,1,13.19-24.8A60.71,60.71,0,0,1,145,824q13-6.19,31-6.2a67.75,67.75,0,0,1,27.8,5.6,71.7,71.7,0,0,1,21.79,14.8q18.4,19.2,18.41,44Z" transform="translate(-104.03 -817.8)"></path><path class="cls-1" d="M256,1105l63.6-284.8h34l63.6,284.8h-40.8l-12-61.2h-55.6l-12,61.2Zm100.8-99.6-20-103.2H336l-20,103.2Z" transform="translate(-104.03 -817.8)"></path><path class="cls-1" d="M438.42,1105V820.2h40.8V1105Z" transform="translate(-104.03 -817.8)"></path><path class="cls-1" d="M517.22,1105V820.2h39.2L618,991.8h.8V820.2h40.8V1105h-38.4l-62.4-171.2H558V1105Z" transform="translate(-104.03 -817.8)"></path><path class="cls-1" d="M723.21,1105V858.6H676V820.2h135.2v38.4H764V1105Z" transform="translate(-104.03 -817.8)"></path><path class="cls-1" d="M1333.18,902.2h-40.8V893q0-14-6.6-24.2t-22.2-10.2q-8.4,0-13.6,3.2a26.82,26.82,0,0,0-8.4,8,33.92,33.92,0,0,0-4.4,11.8,77,77,0,0,0-1.2,13.8,135.2,135.2,0,0,0,.6,14,26.52,26.52,0,0,0,3,10,22.12,22.12,0,0,0,7,7.6,64,64,0,0,0,12.6,6.4l31.2,12.4q13.61,5.21,22,12.2a52.82,52.82,0,0,1,13.2,16.2,76,76,0,0,1,6,21.8,215.2,215.2,0,0,1,1.6,27.8,146.55,146.55,0,0,1-3.6,33.4q-3.6,15.4-11.6,26.2a57.46,57.46,0,0,1-22,17.6q-13.59,6.39-33.2,6.4a72.77,72.77,0,0,1-27.6-5.2,65.45,65.45,0,0,1-22-14.4,70,70,0,0,1-14.6-21.4,65,65,0,0,1-5.4-26.6v-15.2H1234v12.8a33.32,33.32,0,0,0,6.6,20.2q6.6,9,22.2,9,10.4,0,16.2-3a21.46,21.46,0,0,0,9-8.6,31.62,31.62,0,0,0,3.8-13.4q.6-7.8.6-17.4a173.39,173.39,0,0,0-.8-18.4,31.64,31.64,0,0,0-3.2-11.6,22.55,22.55,0,0,0-7.4-7.2,95.93,95.93,0,0,0-12.2-6l-29.2-12q-26.4-10.8-35.4-28.6t-9-44.6a103.61,103.61,0,0,1,4.4-30.4,69.26,69.26,0,0,1,13.2-24.8,60.58,60.58,0,0,1,21.4-16.6q13-6.19,31-6.2a67.75,67.75,0,0,1,27.8,5.6,71.75,71.75,0,0,1,21.8,14.8q18.4,19.2,18.4,44Z" transform="translate(-104.03 -817.8)"></path><path class="cls-1" d="M1361.18,887.4q0-17.19,6-30.4a64.23,64.23,0,0,1,16-22,67.69,67.69,0,0,1,21.8-12.8,72.61,72.61,0,0,1,71.4,12.8,67,67,0,0,1,15.6,22q6,13.2,6,30.4v150.4q0,18-6,30.8a63.47,63.47,0,0,1-15.6,21.2,68.54,68.54,0,0,1-22.2,13.2,71,71,0,0,1-49.2,0,64,64,0,0,1-21.8-13.2,61,61,0,0,1-16-21.2q-6-12.8-6-30.8Zm40.8,150.4q0,14.81,8.2,21.8a30.38,30.38,0,0,0,38.8,0q8.19-7,8.2-21.8V887.4q0-14.79-8.2-21.8a30.38,30.38,0,0,0-38.8,0q-8.21,7-8.2,21.8Z" transform="translate(-104.03 -817.8)"></path><path class="cls-1" d="M1534,1105V820.2h121.6v38.4h-80.8V945h70.4v38.4h-70.4V1105Z" transform="translate(-104.03 -817.8)"></path><path class="cls-1" d="M1683.18,1105V820.2H1724V1105Z" transform="translate(-104.03 -817.8)"></path><path class="cls-1" d="M1745.17,1105l63.6-284.8h34l63.6,284.8h-40.8l-12-61.2H1798l-12,61.2Zm100.8-99.6-20-103.2h-.8l-20,103.2Z" transform="translate(-104.03 -817.8)"></path><path class="cls-1" d="M1073.56,983.17h-54.7v53.45H978.3V983.17H923.91V944.82H978.3V891.37h40.56v53.45h54.7Z" transform="translate(-104.03 -817.8)"></path></svg>